<svg width="1200" height="600" viewBox="0 0 1200 600" fill="none" xmlns="http://www.w3.org/2000/svg">
  <rect width="1200" height="600" fill="#F7F7F7"/>
  
  <!-- Background Patterns -->
  <rect x="0" y="0" width="1200" height="600" fill="#F7F7F7"/>
  
  <!-- Abstract Shapes -->
  <circle cx="200" cy="200" r="300" fill="#C75000" opacity="0.03"/>
  <circle cx="1000" cy="400" r="250" fill="#C75000" opacity="0.05"/>
  
  <!-- Decorative Patterns -->
  <g opacity="0.1">
    <rect x="100" y="100" width="200" height="5" rx="2.5" fill="#C75000"/>
    <rect x="100" y="120" width="150" height="5" rx="2.5" fill="#C75000"/>
    <rect x="100" y="140" width="100" height="5" rx="2.5" fill="#C75000"/>
    
    <rect x="900" y="300" width="200" height="5" rx="2.5" fill="#C75000"/>
    <rect x="900" y="320" width="150" height="5" rx="2.5" fill="#C75000"/>
    <rect x="900" y="340" width="100" height="5" rx="2.5" fill="#C75000"/>
  </g>
  
  <!-- Grid Pattern -->
  <g opacity="0.05">
    <line x1="0" y1="100" x2="1200" y2="100" stroke="#000000" stroke-width="1"/>
    <line x1="0" y1="200" x2="1200" y2="200" stroke="#000000" stroke-width="1"/>
    <line x1="0" y1="300" x2="1200" y2="300" stroke="#000000" stroke-width="1"/>
    <line x1="0" y1="400" x2="1200" y2="400" stroke="#000000" stroke-width="1"/>
    <line x1="0" y1="500" x2="1200" y2="500" stroke="#000000" stroke-width="1"/>
    
    <line x1="100" y1="0" x2="100" y2="600" stroke="#000000" stroke-width="1"/>
    <line x1="300" y1="0" x2="300" y2="600" stroke="#000000" stroke-width="1"/>
    <line x1="500" y1="0" x2="500" y2="600" stroke="#000000" stroke-width="1"/>
    <line x1="700" y1="0" x2="700" y2="600" stroke="#000000" stroke-width="1"/>
    <line x1="900" y1="0" x2="900" y2="600" stroke="#000000" stroke-width="1"/>
    <line x1="1100" y1="0" x2="1100" y2="600" stroke="#000000" stroke-width="1"/>
  </g>
  
  <!-- Scattered Dots -->
  <g opacity="0.2">
    <circle cx="150" cy="150" r="3" fill="#C75000"/>
    <circle cx="200" cy="150" r="3" fill="#C75000"/>
    <circle cx="250" cy="150" r="3" fill="#C75000"/>
    
    <circle cx="150" cy="200" r="3" fill="#C75000"/>
    <circle cx="200" cy="200" r="3" fill="#C75000"/>
    <circle cx="250" cy="200" r="3" fill="#C75000"/>
    
    <circle cx="150" cy="250" r="3" fill="#C75000"/>
    <circle cx="200" cy="250" r="3" fill="#C75000"/>
    <circle cx="250" cy="250" r="3" fill="#C75000"/>
    
    <circle cx="950" cy="350" r="3" fill="#C75000"/>
    <circle cx="1000" cy="350" r="3" fill="#C75000"/>
    <circle cx="1050" cy="350" r="3" fill="#C75000"/>
    
    <circle cx="950" cy="400" r="3" fill="#C75000"/>
    <circle cx="1000" cy="400" r="3" fill="#C75000"/>
    <circle cx="1050" cy="400" r="3" fill="#C75000"/>
    
    <circle cx="950" cy="450" r="3" fill="#C75000"/>
    <circle cx="1000" cy="450" r="3" fill="#C75000"/>
    <circle cx="1050" cy="450" r="3" fill="#C75000"/>
  </g>
  
  <!-- Decorative Elements -->
  <rect x="600" y="100" width="50" height="50" rx="25" fill="#C75000" opacity="0.1"/>
  <rect x="550" y="450" width="100" height="100" rx="50" fill="#C75000" opacity="0.1"/>
  
  <!-- Subtle Wave Pattern -->
  <path d="M0,500 C200,450 400,550 600,500 C800,450 1000,550 1200,500 V600 H0 V500Z" fill="#C75000" opacity="0.05"/>
</svg> 