<svg width="600" height="700" viewBox="0 0 600 700" fill="none" xmlns="http://www.w3.org/2000/svg">
  <rect width="600" height="700" fill="#F0F0F0"/>
  
  <!-- Background Elements -->
  <rect x="0" y="0" width="600" height="700" fill="#F7F7F7"/>
  <rect x="0" y="400" width="600" height="300" fill="#EEEEEE"/>
  
  <!-- Office Environment -->
  <rect x="50" y="100" width="500" height="300" rx="5" fill="#FFFFFF" stroke="#DDDDDD" stroke-width="2"/>
  <rect x="100" y="150" width="120" height="80" rx="3" fill="#E0E0E0"/>
  <rect x="240" y="150" width="120" height="80" rx="3" fill="#E0E0E0"/>
  <rect x="380" y="150" width="120" height="80" rx="3" fill="#E0E0E0"/>
  
  <!-- Office Desk -->
  <rect x="50" y="420" width="500" height="20" rx="2" fill="#C75000" opacity="0.9"/>
  <rect x="80" y="440" width="440" height="10" rx="1" fill="#A34000"/>
  
  <!-- People Silhouettes -->
  <circle cx="150" cy="350" r="40" fill="#333333"/>
  <rect x="130" y="390" width="40" height="80" rx="5" fill="#444444"/>
  
  <circle cx="300" cy="350" r="40" fill="#333333"/>
  <rect x="280" y="390" width="40" height="80" rx="5" fill="#444444"/>
  
  <circle cx="450" cy="350" r="40" fill="#333333"/>
  <rect x="430" y="390" width="40" height="80" rx="5" fill="#444444"/>
  
  <!-- Computer Screens -->
  <rect x="100" y="480" width="100" height="70" rx="3" fill="#C75000" opacity="0.8"/>
  <rect x="105" y="485" width="90" height="55" rx="2" fill="#FFFFFF"/>
  
  <rect x="250" y="480" width="100" height="70" rx="3" fill="#C75000" opacity="0.8"/>
  <rect x="255" y="485" width="90" height="55" rx="2" fill="#FFFFFF"/>
  
  <rect x="400" y="480" width="100" height="70" rx="3" fill="#C75000" opacity="0.8"/>
  <rect x="405" y="485" width="90" height="55" rx="2" fill="#FFFFFF"/>
  
  <!-- Decorative Elements -->
  <circle cx="550" cy="150" r="15" fill="#C75000" opacity="0.5"/>
  <circle cx="50" cy="250" r="10" fill="#C75000" opacity="0.3"/>
  <rect x="520" y="580" width="50" height="50" rx="5" fill="#C75000" opacity="0.2"/>
  
  <!-- Text Placeholder -->
  <rect x="200" y="600" width="200" height="20" rx="3" fill="#C75000" opacity="0.7"/>
  <rect x="150" y="630" width="300" height="10" rx="3" fill="#333333" opacity="0.5"/>
  <rect x="200" y="650" width="200" height="10" rx="3" fill="#333333" opacity="0.5"/>
</svg> 