<?xml version="1.0" encoding="UTF-8"?>
<svg id="Layer_2" data-name="Layer 2" xmlns="http://www.w3.org/2000/svg" viewBox="0 0 179.9 114.05">
  <defs>
    <style>
      svg {
        background:rgba(242, 242, 242, 0);
      }
      .cls-1 {
        fill: #C75000;
      }
      .e-shape {
        fill: #1A1A1A;
      }
    </style>
  </defs>
  <g id="Layer_2-2" data-name="Layer 2">
    <path class="e-shape" d="M57.03,86.75h77.05c7.54,0,13.65,6.11,13.65,13.65h0c0,7.54-6.11,13.65-13.65,13.65H57.03c-1.74,0-3.46-.08-5.16-.23-8.93-.8-17.28-3.66-24.54-8.11C10.93,95.69,0,77.63,0,57.03c0-15.75,6.38-30,16.7-40.32,3.19-3.19,6.75-6,10.62-8.36C34.59,3.9,42.93,1.03,51.86.23c1.7-.15,3.42-.23,5.16-.23h88.23c16.62,0,30.5,11.69,33.87,27.3.51,2.37.78,4.83.78,7.35,0,3.52-.52,6.91-1.5,10.1-4.33,14.21-17.53,24.55-33.15,24.55h-81.12c-6.78,0-12.27-5.49-12.27-12.27h0c0-6.78,5.49-12.27,12.27-12.27h82.5c4.82,0,8.73-3.91,8.73-8.73,0-2.41-.98-4.59-2.56-6.17-1.58-1.58-3.76-2.56-6.17-2.56H57.03c-1.76,0-3.49.15-5.16.45-6.14,1.07-11.63,4.03-15.86,8.26-5.14,5.14-8.41,12.16-8.69,19.93-.01.36-.02.73-.02,1.09s0,.73.02,1.09c.51,14.16,10.93,25.8,24.54,28.19,1.68.3,3.4.45,5.16.45Z"/>
    <circle class="cls-1" cx="166.26" cy="100.4" r="13.65"/>
  </g>
</svg>